<?xml version="1.0" encoding="utf-8"?>
<svg version="1.0" xmlns="http://www.w3.org/2000/svg" width="1080.000000pt" height="1080.000000pt" viewBox="13 0 1054 417.352" preserveAspectRatio="xMidYMid meet">
  <g transform="matrix(0.1, 0, 0, -0.1, -13, 925.872)" fill="#000000" stroke="none">
    <path d="M5043 9240 c-66 -10 -152 -26 -190 -35 -37 -9 -88 -21 -113 -26 -25 -6 -56 -14 -70 -19 -14 -4 -43 -13 -65 -19 -123 -34 -323 -98 -347 -111 -10 -6 -25 -10 -33 -10 -8 0 -23 -4 -33 -9 -17 -9 -252 -87 -307 -102 -38 -10 -95 -26 -137 -38 -18 -6 -51 -15 -73 -21 -91 -26 -186 -39 -290 -40 -187 -2 -257 -25 -163 -54 89 -27 176 -50 268 -68 78 -15 285 -16 355 -1 28 6 77 17 110 24 53 11 87 19 185 45 38 10 248 73 310 94 168 54 356 104 460 120 41 6 97 16 123 21 74 14 378 11 507 -6 222 -27 486 -85 865 -188 230 -62 291 -78 380 -96 399 -83 440 -83 735 1 19 5 47 12 62 15 34 6 54 28 37 39 -7 4 -91 11 -188 15 -167 7 -214 15 -366 59 -67 20 -154 44 -207 59 -18 5 -82 25 -143 44 -60 19 -148 47 -195 62 -47 15 -94 31 -105 35 -11 4 -54 18 -95 30 -41 12 -93 28 -115 35 -99 30 -214 61 -315 84 -25 6 -74 17 -110 25 -36 8 -96 19 -135 25 -38 6 -100 15 -136 21 -99 15 -329 10 -466 -10z" style="fill: rgb(0, 12, 104);"/>
    <path d="M5075 8838 c-122 -18 -425 -84 -495 -107 -14 -5 -59 -19 -100 -31 -41 -13 -100 -31 -130 -40 -30 -10 -122 -39 -205 -65 -82 -26 -160 -51 -173 -56 -13 -5 -34 -9 -47 -9 -14 0 -44 -4 -67 -10 -24 -5 -82 -16 -130 -24 -48 -9 -104 -23 -125 -33 -32 -16 -38 -23 -36 -48 3 -56 -7 -73 -79 -131 -145 -116 -188 -182 -188 -289 0 -63 1 -65 25 -65 14 0 60 23 101 51 187 126 296 145 482 83 86 -29 104 -39 146 -80 117 -118 100 -326 -35 -424 -74 -53 -197 -74 -302 -51 -23 5 -69 15 -102 21 -33 7 -73 16 -89 21 -16 5 -31 8 -33 6 -2 -2 41 -54 95 -114 236 -266 462 -603 620 -925 48 -97 90 -177 93 -177 3 -1 11 47 19 107 10 82 13 248 11 704 -1 510 1 603 13 633 18 43 14 44 150 -58 108 -80 246 -214 405 -392 121 -134 432 -451 536 -546 120 -109 269 -224 390 -304 80 -52 289 -158 345 -175 25 -7 50 -17 55 -20 6 -4 21 -10 35 -13 14 -3 50 -12 80 -20 78 -22 259 -47 335 -47 95 0 282 27 355 51 216 70 353 195 411 375 33 100 32 272 -1 364 -55 156 -151 245 -316 295 -63 19 -197 19 -271 0 -137 -35 -264 -128 -310 -226 -29 -62 -47 -160 -40 -219 12 -103 82 -204 173 -251 69 -35 190 -35 259 1 50 26 100 84 122 143 16 44 15 124 -1 172 -19 53 -71 115 -99 115 -31 1 -61 26 -54 45 8 20 119 20 178 0 118 -42 185 -191 148 -330 -42 -160 -138 -258 -299 -306 -62 -19 -354 -19 -435 0 -248 57 -572 222 -755 386 -133 118 -403 378 -665 638 l-270 269 55 -7 c30 -4 89 -12 130 -17 129 -16 743 -22 850 -8 224 28 403 70 655 152 146 48 256 88 297 109 10 5 22 9 28 9 5 0 38 13 72 29 76 34 242 90 358 121 115 30 129 34 255 75 109 36 123 41 220 86 l50 24 -145 7 c-80 4 -183 14 -229 22 -66 12 -512 148 -606 186 -11 4 -54 18 -95 30 -41 13 -100 31 -130 41 -91 29 -329 97 -422 120 -21 5 -55 13 -75 19 -168 42 -300 70 -428 89 -38 6 -100 15 -136 21 -78 12 -349 11 -434 -2z m750 -248 c115 -19 309 -65 375 -89 14 -5 79 -26 145 -47 66 -20 145 -44 175 -54 30 -10 82 -25 115 -35 108 -31 316 -117 312 -128 -2 -6 -44 -28 -93 -48 -49 -21 -105 -44 -124 -53 -57 -24 -334 -114 -433 -140 -127 -33 -124 -32 -312 -67 -27 -5 -84 -13 -125 -19 -41 -5 -120 -16 -175 -25 -186 -29 -263 -19 -205 26 79 61 104 86 139 138 61 89 86 176 85 296 0 99 -13 155 -49 225 -8 16 -15 32 -15 36 0 7 89 0 185 -16z m-287 -53 c42 -61 52 -100 52 -195 0 -285 -233 -482 -523 -442 -45 7 -102 21 -126 32 -143 64 -243 264 -211 421 28 139 110 219 178 171 19 -13 22 -24 22 -78 0 -95 -47 -186 -105 -200 -32 -8 -32 -35 -1 -84 45 -72 117 -126 212 -158 75 -25 214 -17 285 19 75 37 140 103 179 184 28 58 32 76 32 148 0 82 -2 88 -56 192 -37 70 13 62 62 -10z m-924 -44 c-5 -27 -8 -100 -7 -163 1 -146 21 -206 109 -328 22 -29 13 -36 -28 -23 -156 50 -401 138 -468 169 -218 98 -293 122 -387 122 -65 0 -83 3 -83 14 0 15 6 18 85 35 106 24 292 70 335 84 25 8 65 20 90 27 25 7 104 32 175 55 122 40 158 51 178 54 5 0 5 -20 1 -46z" style="fill: rgb(6, 0, 100);"/>
    <path d="M4800 5725 l0 -615 144 0 144 0 4 233 c5 255 12 291 69 360 17 20 59 50 97 69 63 31 73 33 172 33 95 0 110 -3 157 -28 114 -59 132 -121 133 -444 l0 -223 146 0 145 0 -3 298 -3 297 -33 67 c-18 36 -51 83 -73 103 -170 153 -512 150 -696 -6 -17 -14 -47 -47 -67 -73 l-36 -48 0 296 0 296 -150 0 -150 0 0 -615z" style="fill: rgb(143, 134, 211);"/>
    <path d="M260 5700 l0 -590 155 0 155 0 0 420 c0 231 3 420 8 420 4 -1 107 -188 229 -418 l222 -417 148 -3 148 -2 215 411 c118 226 220 419 227 428 10 13 12 -73 13 -411 l0 -428 155 0 155 0 0 590 0 590 -223 0 -222 0 -230 -437 c-127 -240 -235 -438 -240 -440 -6 -1 -115 195 -243 437 l-234 440 -219 0 -219 0 0 -590z" style="fill: rgb(143, 134, 211);"/>
    <path d="M3990 6230 l-145 -26 -3 -122 -3 -122 -129 0 -130 0 0 -95 0 -95 129 0 129 0 4 -222 c4 -201 6 -228 25 -269 64 -140 245 -214 465 -189 142 16 230 54 320 138 l48 44 -41 79 -41 79 -45 -41 c-113 -104 -298 -130 -382 -55 -44 40 -51 73 -51 261 l0 175 265 0 265 0 0 95 0 95 -265 0 -264 0 -3 148 -3 148 -145 -26z" style="fill: rgb(143, 134, 211);"/>
    <path d="M7710 6230 l-145 -26 -3 -122 -3 -122 -129 0 -130 0 0 -95 0 -95 129 0 129 0 4 -222 c4 -201 6 -228 25 -269 64 -140 245 -214 465 -189 142 16 230 54 320 138 l48 44 -41 79 -41 79 -45 -41 c-113 -104 -298 -130 -382 -55 -44 40 -51 73 -51 261 l0 175 265 0 265 0 0 95 0 95 -265 0 -264 0 -3 148 -3 148 -145 -26z" style="fill: rgb(143, 134, 211);"/>
    <path d="M2725 5979 c-102 -14 -226 -45 -311 -79 -79 -31 -184 -94 -184 -109 0 -9 66 -131 78 -143 4 -4 30 8 59 26 76 48 194 92 313 116 143 30 339 25 415 -8 27 -13 57 -30 67 -39 22 -20 23 -56 3 -73 -8 -7 -117 -21 -267 -35 -280 -26 -339 -36 -439 -70 -155 -52 -249 -145 -249 -245 0 -34 22 -91 47 -120 115 -137 518 -154 757 -33 28 14 76 50 107 80 l57 54 7 -33 c15 -69 58 -123 121 -153 83 -39 245 -36 344 6 80 34 83 43 48 122 -28 60 -33 66 -47 53 -22 -19 -83 -35 -114 -29 -58 11 -62 25 -67 262 -6 243 -7 248 -83 318 -54 50 -100 74 -192 102 -130 38 -311 50 -470 30z m450 -506 c-14 -78 -82 -135 -210 -176 -59 -18 -93 -22 -215 -22 -123 0 -151 3 -183 19 -99 49 -63 136 68 166 53 12 403 47 494 49 l53 1 -7 -37z" style="fill: rgb(143, 134, 211);"/>
    <path d="M6552 5979 c-170 -22 -301 -90 -348 -181 -40 -77 -22 -182 39 -234 72 -60 174 -85 446 -109 215 -19 271 -29 306 -56 54 -43 19 -98 -80 -124 -73 -19 -271 -22 -365 -6 -127 23 -256 74 -317 125 l-31 26 -45 -73 c-43 -68 -45 -73 -29 -91 47 -52 232 -125 384 -151 123 -22 346 -22 453 0 203 41 315 137 315 270 0 70 -18 113 -61 150 -77 64 -167 87 -460 115 -227 22 -279 32 -305 61 -42 47 15 100 129 119 148 25 352 -7 473 -74 l59 -34 42 67 c49 76 51 71 -47 121 -146 74 -361 105 -558 79z" style="fill: rgb(143, 134, 211);"/>
    <path d="M8996 5980 c-202 -32 -349 -109 -433 -227 -70 -98 -86 -233 -43 -348 32 -84 128 -179 231 -229 246 -117 630 -120 902 -6 40 17 82 38 94 48 l23 17 -46 72 -45 73 -59 -30 c-99 -50 -199 -72 -355 -77 -156 -6 -237 7 -325 52 -56 28 -114 83 -123 114 l-5 21 469 0 469 0 6 26 c4 14 4 56 0 93 -16 178 -163 325 -383 382 -90 23 -286 33 -377 19z m259 -182 c89 -19 152 -63 186 -130 36 -70 46 -68 -309 -68 -175 0 -321 3 -325 6 -11 12 23 78 60 116 80 82 226 111 388 76z" style="fill: rgb(143, 134, 211);"/>
    <path d="M10450 5975 c-30 -9 -73 -27 -95 -40 -46 -26 -119 -102 -137 -140 -6 -14 -15 -25 -19 -25 -4 0 -15 43 -25 95 l-18 95 -123 0 -123 0 0 -425 0 -425 145 0 145 0 0 198 c0 108 5 224 10 257 14 86 56 164 108 200 38 26 53 30 110 30 55 0 73 -4 101 -24 37 -26 81 -110 81 -153 0 -16 2 -28 4 -28 8 0 151 30 169 36 15 5 17 20 17 128 l0 122 -32 32 c-73 70 -206 98 -318 67z" style="fill: rgb(143, 134, 211);"/>
  </g>
</svg>