<?xml version="1.0" encoding="utf-8"?>
<svg version="1.0" xmlns="http://www.w3.org/2000/svg" width="1080.000000pt" height="1080.000000pt" viewBox="0 0 1080.000000 1080.000000" preserveAspectRatio="xMidYMid meet">
  <path stroke="rgb(255,0,0)" stroke-width="0" d="M 515.627 362.095 C 532.828 361.791 554.952 361.804 570.541 362.848 C 583.255 363.699 591.198 364.379 603.264 366.985 C 617.458 370.051 636.503 376.124 650.656 381.278 C 663.239 385.86 676.696 391.491 684.507 395.947 C 689.801 398.967 693.175 401.495 695.603 404.409 C 697.538 406.732 698.435 409.123 698.988 411.556 C 699.519 413.892 699.436 416.432 698.988 418.702 C 698.546 420.943 697.543 423.226 696.355 425.096 C 695.204 426.908 693.983 428.38 692.03 429.798 C 689.653 431.523 688.038 432.476 682.627 434.311 C 671.341 438.139 638.873 446.08 619.061 450.109 C 601.134 453.754 582.354 456.309 568.661 458.007 C 558.195 459.305 550.834 459.904 542.708 460.264 C 535.244 460.595 530.259 460.708 521.645 460.264 C 510.176 459.672 492.342 458.096 478.767 456.127 C 465.968 454.27 455.209 452.124 442.283 448.98 C 428.041 445.517 407.409 439.523 396.772 435.816 C 389.822 433.394 385.204 431.599 381.727 429.422 C 379.261 427.878 377.92 426.694 376.649 424.72 C 375.291 422.613 376.336 418.119 374.016 417.01 C 370.812 415.478 361.341 420.204 356.15 420.771 C 351.868 421.238 348.225 421.688 344.866 420.771 C 341.683 419.902 338.346 417.627 336.404 415.693 C 334.805 414.101 333.976 412.473 333.395 410.427 C 332.748 408.153 332.344 405.137 333.018 402.529 C 333.756 399.679 335.973 396.062 338.096 394.066 C 340.005 392.271 342.446 391.311 344.866 390.681 C 347.33 390.04 348.807 390.847 352.765 390.305 C 359.999 389.314 373.836 386.336 387.745 383.158 C 405.602 379.079 437.954 369.921 452.438 366.985 C 461.133 365.223 499.769 362.376 515.627 362.095 Z M 251.028 646.303 C 253.483 646.002 253.771 644.598 256.069 645.626 C 258.617 646.767 259.663 643.435 262.199 646.34 C 265.665 650.311 263.905 652.118 267.691 659.731 C 272.865 670.136 271.228 679.418 277.131 679.628 C 283.016 679.837 289.424 728.138 295.223 717.804 C 299.602 710.003 302.786 737.194 305.942 733.865 C 307.747 731.963 316.427 703.862 318.279 703.173 C 320.439 702.37 340.01 646.428 341.524 648.785 C 343.914 652.506 350.456 647.066 352.695 649.425 C 354.667 651.503 355.358 653.293 356.08 656.947 C 357.222 662.728 355.128 691.055 355.929 702.308 C 356.412 709.083 356.134 719.307 355.628 722.92 C 355.264 725.524 356.498 751.859 355.554 753.612 C 354.652 755.284 358.877 756.734 357.396 757.937 C 355.837 759.205 353.829 760.375 351.755 760.946 C 349.585 761.544 347.112 762.031 344.608 761.322 C 343.028 760.875 341.032 759.829 339.196 758.602 C 339.379 754.827 340.131 749.62 339.907 746.164 C 339.502 739.923 340.872 704.094 338.289 703.774 C 335.449 703.423 338.001 668.802 334.039 674.475 C 331.486 678.131 309.616 736.962 307.296 738.98 C 305.147 740.85 304.222 750.978 301.73 751.919 C 299.212 752.87 296.022 753.341 293.455 753.047 C 291.027 752.769 256.026 670.658 254.187 669.472 C 252.532 668.405 254.172 743.529 252.345 740.447 C 247.266 731.884 260.755 776.956 253.548 762.338 C 249.091 753.299 243.407 763.246 241.663 758.351 C 240.473 755.011 247.485 659.563 248.133 656.797 C 248.85 653.735 243.952 652.7 246.364 650.591 C 248.608 648.629 248.356 646.63 251.028 646.303 Z M 339.196 758.602 C 339.129 759.996 339.139 761.194 339.305 762.037 C 339.794 764.523 333.39 753.265 335.017 755.116 C 335.985 756.217 337.524 757.485 339.196 758.602 Z M 390.233 698.772 C 389.68 696.642 411.199 685.684 416.899 687.602 C 422.179 689.378 424.434 688.788 427.618 691.739 C 430.078 694.019 436.689 703.046 435.894 708.552 C 435.381 712.112 437.01 749.049 435.593 751.279 C 434.185 753.496 443.508 759.223 440.971 761.322 C 437.53 764.17 432.286 761.13 427.582 763.202 C 423.397 765.046 424.994 752.228 421.489 752.671 C 418.709 753.023 405.796 762.082 402.907 761.999 C 399.133 761.89 396.919 763.598 393.204 762.45 C 390.125 761.499 386.687 760.11 384.665 758.049 C 382.59 755.936 387.599 751.084 386.696 748.045 C 385.721 744.759 395.355 739.386 396.25 735.858 C 397.154 732.298 400.836 733.887 404.487 730.405 C 410.076 725.074 418.321 727.97 420.924 722.318 C 422.637 718.597 424.593 711.651 422.692 710.018 C 421.352 708.868 419.532 695.207 417.802 696.102 C 415.153 697.472 405.545 695.375 402.832 697.757 C 400.861 699.487 394.718 715.845 392.677 716.413 C 390.588 716.994 387.12 717.736 384.703 717.09 C 381.746 716.3 386.474 713.389 384.44 711.26 C 382.868 709.616 390.745 700.743 390.233 698.772 Z M 474.146 679.703 C 476.659 679.354 479.482 691.729 479.75 693.507 C 479.836 694.074 481.296 747.063 481.329 747.518 C 481.403 748.525 481.842 754.047 481.104 755.943 C 480.352 757.876 488.321 757.183 486.746 758.689 C 485.062 760.299 482.481 761.766 480.164 762.45 C 477.899 763.119 475.455 763.413 473.017 762.827 C 470.267 762.165 469.652 755.049 467.563 752.709 C 465.396 750.281 468.893 709.499 467.94 704.114 C 466.102 693.723 457.949 703.608 459.665 693.432 C 460.536 688.262 464.795 691.605 467.112 689.331 C 469.535 686.955 471.079 680.128 474.146 679.703 Z M 512.247 648.222 C 513.336 646.365 531.156 641.029 531.354 643.482 C 531.403 644.085 534.712 661.709 534.664 661.988 C 534.607 662.323 532.204 702.695 532.182 703.135 C 532.156 703.668 550.603 690.515 550.612 691.476 C 550.628 693.237 572.338 690.501 572.653 691.099 C 572.76 691.303 584.964 699.02 583.485 707.724 C 582.671 712.517 585.521 749.696 583.598 751.769 C 581.972 753.521 583.92 762.587 581.868 763.278 C 579.787 763.978 577.326 764.325 575.098 764.03 C 572.811 763.727 570.112 762.543 568.327 761.397 C 566.784 760.407 572.151 749.639 571.073 747.894 C 569.611 745.528 571.544 712.5 570.622 707.649 C 569.164 699.973 559.182 703.145 556.705 699.487 C 555.619 697.883 542.545 702.186 540.645 702.421 C 537.756 702.779 534.422 715.271 532.107 718.03 C 529.672 720.933 532.69 747.383 532.633 747.969 C 532.531 749.033 533.557 752.568 533.31 754.439 C 533.032 756.549 540.316 756.26 539.178 758.2 C 538.089 760.057 536.919 761.718 534.852 762.902 C 532.297 764.365 527.64 765.907 524.321 765.535 C 521.065 765.17 517.344 763.074 515.106 760.833 C 512.965 758.691 522.091 750.414 521.199 747.142 C 520.16 743.327 522.267 711.517 522.177 709.831 C 522.149 709.301 520.009 659.279 520.071 658.753 C 520.112 658.401 511.109 650.163 512.247 648.222 Z M 624.616 687.903 C 630.657 686.894 640.343 685.545 642.406 687.64 C 644.206 689.466 650.895 690.083 651.509 692.228 C 652.079 694.222 653.67 701.114 653.089 703.362 C 652.334 706.277 646.969 696.725 644.25 698.885 C 641.641 700.958 625.895 690.495 625.255 691.664 C 624.876 692.358 620.575 706.026 620.93 706.483 C 622.121 708.02 648.408 721.417 650.004 725.327 C 651.173 728.192 658.109 737.526 658.053 739.77 C 658.004 741.725 661.307 746.033 660.536 747.744 C 659.692 749.615 659.117 751.062 656.586 753.198 C 652.018 757.053 648.477 762.117 642.143 764.256 C 638.128 765.612 626.733 764.566 623.713 763.805 C 620.512 762.998 614.429 765.512 612.392 762.789 C 610.351 760.061 609.357 755.316 609.383 752.257 C 609.404 749.68 610.501 747.428 611.639 745.487 C 612.728 743.631 610.839 741.795 612.655 740.485 C 614.649 739.046 619.197 754.342 619.688 753.349 C 619.956 752.807 634.809 759.822 634.395 759.366 C 633.948 758.874 647.848 755.778 648.048 745.112 C 648.08 743.407 630.407 730.847 628.603 728.976 C 626.777 727.081 615.578 724.999 613.972 722.995 C 612.402 721.036 609.182 718.533 608.48 715.924 C 607.689 712.986 605.441 707.779 605.621 706.37 C 605.688 705.851 605.941 706.023 605.997 705.618 C 606.101 704.879 608.527 706.508 608.63 705.769 C 608.687 705.363 610.157 701.8 610.21 701.405 C 610.304 700.716 613.377 698.724 613.444 697.418 C 613.527 695.808 619.321 688.787 624.616 687.903 Z M 687.052 680.38 C 689.696 679.965 692.358 680.702 694.575 681.508 C 696.646 682.261 690.971 682.094 692.506 683.99 C 694.476 686.424 692.993 688.628 694.311 693.582 C 696.197 700.668 693.998 715.877 694.613 723.146 C 695.038 728.173 695.02 731.443 694.613 735.708 C 694.146 740.601 696.633 744.084 694.914 747.97 C 693.624 750.886 702.954 757.507 700.969 758.99 C 699.098 760.388 696.615 761.208 694.575 761.623 C 692.746 761.995 691.285 762.187 689.309 761.623 C 686.736 760.888 685.18 758.496 683.178 756.545 C 681.552 754.96 682.913 747.964 682.275 745.864 C 681.538 743.439 683.835 733 683.931 729.69 C 684.048 725.678 682.045 708.477 681.9 702.534 C 681.693 694.117 672.735 703.286 673.324 695.613 C 673.708 690.613 679.919 694.061 682.275 691.513 C 684.556 689.047 684.033 680.853 687.052 680.38 Z M 755.733 686.699 C 760.672 686.082 768.346 686.43 773.787 687.827 C 778.866 689.132 777.003 692.829 779.992 695.613 C 782.406 697.861 787.415 699.277 788.042 701.706 C 788.564 703.728 792.242 705.873 791.653 707.95 C 790.906 710.581 788.669 714.725 786.575 716.789 C 784.749 718.588 773.858 711.441 771.756 712.05 C 769.851 712.602 758.283 710.568 755.883 710.319 C 752.439 709.962 764.01 716.837 760.999 717.165 C 759.059 717.376 748.279 711.629 747.42 712.388 C 746.822 712.916 740.824 713.58 740.575 714.494 C 740.086 716.289 740.879 734.217 741.478 737.288 C 742.032 740.127 756.293 751.39 757.914 753.122 C 759.355 754.663 770.309 756.148 772.583 756.357 C 775.375 756.613 775.552 750.698 778.827 751.091 C 782.137 751.489 786.737 746.384 789.02 748.872 C 791.357 751.418 788.453 751.354 788.644 754.589 C 788.811 757.436 777.953 757.62 776.758 759.78 C 775.678 761.734 768.82 761.289 766.716 762.676 C 763.963 764.489 758.845 762.819 754.755 763.579 C 750.579 764.355 751.815 762.493 747.307 761.472 C 742.314 760.342 743.27 759.723 739.409 757.335 C 736.477 755.52 735.437 754.355 733.429 751.881 C 731.033 748.929 730.431 751.236 728.84 747.443 C 727.387 743.98 726.441 741.492 725.831 737.288 C 725.034 731.792 724.878 721.751 725.455 716.601 C 725.86 712.98 729.936 710.89 731.022 708.326 C 732.082 705.821 733.73 702.671 734.557 701.669 C 734.906 701.245 739.162 700.56 739.522 700.202 C 740.258 699.47 734.454 697.983 736.174 696.478 C 738.482 694.46 742.611 691.73 745.954 690.084 C 749.138 688.516 751.783 687.192 755.733 686.699 Z M 825.617 701.066 C 830.586 700.767 841.765 687 846.154 688.354 C 849.641 689.429 853.873 690.808 855.744 692.829 C 857.371 694.587 856.098 693.87 856.647 695.838 C 857.146 697.625 855.379 699.35 854.917 701.405 C 854.294 704.181 847.929 700.469 845.928 702.647 C 844.361 704.351 835.512 700.205 833.44 700.842 C 831.09 701.564 831.641 708.531 829.679 708.514 C 828.401 708.502 828.748 729.002 828.061 730.104 C 826.083 733.277 829.094 746.455 828.137 753.912 C 827.657 757.652 840.742 754.076 839.722 755.868 C 838.851 757.397 837.878 758.39 836.525 759.441 C 835.006 760.621 832.923 761.883 830.883 762.45 C 828.794 763.032 826.53 763.472 824.112 762.827 C 821.155 762.037 816.626 759.379 814.521 756.997 C 812.706 754.941 812.208 753.955 811.512 749.85 C 810.078 741.383 811.68 711.404 811.136 702.458 C 810.864 697.992 809.574 696.947 810.008 694.184 C 810.469 691.243 818.29 692.736 820.464 690.46 C 822.697 688.123 820.021 681.641 823.36 680.455 C 826.833 679.222 821.362 701.323 825.617 701.066 Z" style="stroke: rgb(129, 151, 57); stroke-width: 2px; fill: rgb(255, 255, 255);"/>
  <g transform="translate(0.000000,1080.000000) scale(0.100000,-0.100000)" fill="#000000" stroke="none">
    <path d="M4875 7789 c-151 -21 -156 -22 -295 -55 -130 -31 -166 -40 -257 -70 -39 -13 -79 -24 -87 -24 -9 0 -24 -4 -34 -9 -9 -5 -44 -17 -77 -27 -33 -10 -64 -22 -70 -26 -5 -4 -19 -8 -31 -8 -13 0 -25 -4 -28 -9 -3 -5 -18 -11 -33 -14 -24 -4 -109 -31 -178 -57 -11 -4 -60 -20 -110 -35 -49 -16 -109 -34 -131 -41 -217 -68 -343 -92 -524 -99 -207 -9 -271 -28 -177 -54 23 -7 58 -17 77 -22 43 -13 79 -21 199 -48 147 -33 316 -29 501 10 170 35 196 42 270 64 30 9 69 20 85 25 32 9 180 55 230 72 17 5 44 13 60 18 17 5 55 16 85 25 113 34 119 35 265 70 129 30 199 37 435 42 225 5 346 -2 495 -28 119 -21 221 -40 255 -49 19 -5 85 -21 145 -35 115 -27 170 -41 220 -55 17 -5 59 -16 95 -25 101 -25 143 -37 170 -46 14 -4 54 -15 90 -24 36 -9 81 -20 100 -25 19 -5 67 -16 105 -25 39 -8 88 -20 110 -24 22 -5 65 -14 95 -20 30 -5 81 -15 114 -21 123 -25 269 -11 461 41 44 12 100 27 125 34 55 15 65 40 19 49 -17 3 -95 6 -173 6 -131 0 -152 3 -296 40 -85 21 -209 55 -275 75 -66 20 -133 40 -150 45 -16 4 -70 21 -120 37 -171 57 -436 141 -515 163 -25 7 -56 16 -70 20 -76 25 -247 68 -395 100 -276 60 -541 74 -780 39z" style="fill: rgb(8, 0, 119);"/>
    <path d="M4900 7349 c-171 -28 -261 -46 -400 -81 -212 -54 -217 -55 -490 -143 -63 -21 -128 -41 -145 -45 -16 -5 -52 -16 -80 -25 -98 -33 -110 -36 -300 -69 -234 -41 -261 -54 -250 -122 6 -42 6 -42 -61 -100 -189 -165 -216 -201 -229 -306 -16 -125 14 -137 133 -54 156 109 274 147 401 127 223 -35 327 -110 370 -267 6 -23 11 -54 11 -70 0 -64 -53 -187 -96 -225 -52 -47 -173 -89 -250 -89 -35 0 -158 21 -298 50 -27 5 -51 8 -53 6 -2 -2 37 -50 88 -107 123 -139 194 -228 292 -367 85 -120 247 -368 247 -379 0 -4 6 -14 14 -22 26 -30 126 -224 201 -388 16 -35 31 -63 35 -63 3 0 12 44 20 98 12 76 15 236 16 752 2 779 1 732 17 754 13 17 17 16 73 -20 143 -94 324 -259 499 -459 70 -80 157 -174 315 -339 207 -216 504 -476 680 -593 505 -338 1066 -426 1487 -231 171 78 270 185 329 355 24 68 28 94 28 203 1 161 -18 230 -98 344 -61 87 -165 155 -286 186 -51 13 -242 9 -305 -7 -128 -31 -265 -137 -316 -243 -82 -170 -59 -342 61 -454 76 -71 119 -88 221 -88 76 0 95 3 145 28 156 77 198 307 79 431 -23 24 -50 43 -61 43 -28 1 -58 26 -51 45 8 19 135 21 188 4 130 -44 204 -202 168 -357 -40 -172 -157 -296 -324 -341 -113 -31 -338 -31 -485 0 -106 22 -337 107 -430 158 -95 51 -130 73 -225 137 -60 40 -126 88 -145 106 -19 17 -57 52 -85 77 -117 105 -439 414 -688 660 -270 268 -290 294 -206 271 86 -24 358 -40 671 -40 316 0 438 8 593 40 28 6 75 16 105 22 58 11 218 53 260 67 14 5 54 17 90 27 36 9 69 21 75 26 5 4 17 8 27 8 10 0 26 4 36 9 9 6 51 22 92 36 65 23 155 57 225 85 11 4 41 18 68 29 44 20 233 84 322 110 61 17 186 52 220 60 38 10 214 69 240 80 11 5 46 21 78 35 32 14 62 26 67 26 6 0 10 5 10 10 0 6 -41 10 -104 10 -111 0 -314 22 -381 41 -59 17 -250 78 -325 104 -36 12 -119 39 -185 60 -66 20 -129 41 -140 45 -17 7 -61 20 -240 75 -69 21 -188 56 -230 67 -22 6 -60 16 -85 23 -96 27 -130 35 -270 69 -80 19 -158 37 -175 39 -16 3 -84 14 -150 25 -66 11 -152 25 -192 31 -84 13 -384 12 -463 0z m736 -259 c196 -35 315 -62 419 -95 22 -7 60 -18 85 -25 25 -7 90 -27 145 -45 55 -18 141 -44 190 -59 50 -15 104 -32 120 -37 194 -59 349 -122 343 -141 -6 -18 -381 -169 -483 -195 -11 -2 -29 -8 -40 -13 -48 -19 -198 -60 -290 -79 -22 -5 -74 -16 -115 -26 -97 -22 -166 -33 -265 -45 -44 -5 -136 -18 -205 -29 -158 -26 -216 -27 -224 -4 -7 17 6 31 76 82 54 39 108 113 146 201 53 121 56 307 8 420 -43 102 -43 100 -4 100 19 0 61 -5 94 -10z m-264 -47 c41 -44 54 -66 74 -131 40 -134 -5 -305 -113 -433 -46 -54 -148 -129 -176 -129 -7 0 -17 -4 -22 -8 -6 -5 -45 -14 -88 -21 -93 -15 -236 0 -303 31 -68 31 -150 112 -184 182 -33 66 -59 160 -60 213 0 66 47 202 83 237 7 7 27 20 46 29 36 18 63 11 88 -22 15 -19 17 -157 3 -166 -5 -3 -10 -13 -10 -21 0 -26 -51 -84 -92 -105 -47 -24 -45 -38 14 -117 44 -60 119 -113 199 -142 63 -23 222 -27 279 -7 89 31 186 111 230 191 37 68 50 119 50 206 0 80 -3 89 -40 158 -22 40 -40 77 -40 83 0 20 28 7 62 -28z m-989 -75 c-15 -97 -8 -298 11 -353 20 -57 58 -127 93 -168 31 -38 30 -51 -4 -43 -16 4 -44 11 -63 15 -39 10 -198 65 -245 86 -16 7 -51 20 -78 29 -43 14 -112 42 -207 83 -19 8 -44 19 -55 23 -11 5 -38 16 -60 25 -52 22 -75 31 -100 41 -11 4 -68 10 -127 13 -108 7 -130 13 -111 32 9 9 33 16 208 54 67 15 92 21 195 50 25 7 63 18 85 24 70 19 209 62 230 70 37 16 210 70 223 70 10 1 11 -11 5 -51z" style="fill: rgb(8, 0, 119);"/>
    <path d="M5214 4394 c-28 -13 -78 -29 -110 -36 -67 -13 -74 -19 -74 -69 0 -35 1 -36 55 -48 30 -7 62 -19 70 -27 13 -13 15 -81 15 -483 l0 -468 -31 -7 c-44 -9 -49 -8 -49 7 0 18 -32 47 -53 47 -9 0 -31 -8 -49 -19 -50 -28 -103 -33 -129 -12 -22 17 -22 24 -23 249 l-1 230 120 9 120 8 6 40 c4 22 4 55 1 74 l-5 33 -118 -4 -118 -4 -3 95 -3 96 -49 0 -49 0 -29 -70 c-28 -68 -89 -145 -114 -145 -24 0 -74 -51 -74 -76 0 -37 34 -64 80 -64 l39 0 -2 -247 c-2 -244 -2 -249 21 -288 41 -68 92 -93 192 -94 39 0 87 7 120 19 36 12 57 15 61 8 7 -12 76 -14 310 -10 l166 2 11 26 c7 14 9 36 6 50 -6 24 -34 36 -136 58 l-28 6 0 189 0 189 27 33 c70 83 171 112 240 69 48 -29 54 -66 51 -295 l-3 -199 -30 -6 c-71 -15 -96 -49 -75 -101 l12 -29 210 0 209 0 -3 53 -3 52 -62 15 -63 15 3 245 2 245 -30 54 c-88 159 -268 182 -456 58 l-26 -17 4 202 c3 112 1 240 -2 286 l-7 82 -46 -1 c-27 0 -69 -11 -98 -25z m68 -812 c3 -337 2 -362 -14 -362 -16 0 -18 35 -20 516 l-3 516 -24 19 c-27 22 -27 22 19 41 l35 14 2 -190 c2 -105 4 -354 5 -554z m-529 11 c2 -290 4 -321 20 -347 27 -41 10 -46 -24 -8 l-29 32 0 281 c0 273 -1 281 -20 286 -19 5 -18 8 12 42 18 21 34 37 36 36 1 -1 4 -146 5 -322z m973 232 c61 -47 65 -66 63 -350 0 -232 -2 -255 -17 -255 -16 0 -17 11 -9 123 5 67 7 176 4 242 -6 166 -29 219 -114 257 -24 10 -43 20 -43 22 0 12 90 -19 116 -39z" style="fill: rgb(8, 0, 119);"/>
    <path d="M2259 4372 c-26 -5 -40 -46 -28 -82 12 -33 14 -33 127 -49 41 -5 75 -11 77 -13 2 -2 -1 -70 -5 -153 -5 -82 -16 -289 -25 -460 -9 -170 -18 -317 -21 -326 -3 -11 -21 -18 -57 -22 -29 -3 -70 -12 -90 -21 -35 -14 -37 -17 -37 -63 l0 -48 273 0 c170 0 275 4 279 10 10 13 10 77 0 92 -5 7 -47 16 -102 20 l-95 8 -6 30 c-9 41 -11 497 -2 630 l6 108 20 -39 c75 -145 257 -577 332 -787 l28 -78 41 3 40 3 47 125 c48 129 218 544 262 640 l25 55 1 -337 1 -337 -42 -11 c-123 -32 -123 -31 -126 -77 -2 -33 1 -44 16 -52 11 -6 133 -10 305 -10 l287 0 0 38 c0 54 -16 69 -85 81 -33 6 -75 16 -93 21 l-32 11 2 471 3 472 65 8 c115 13 147 39 134 107 l-6 30 -190 0 c-104 0 -198 -4 -208 -10 -10 -5 -30 -44 -46 -87 -31 -90 -229 -577 -271 -670 -15 -35 -30 -63 -34 -63 -3 0 -86 179 -184 398 -98 218 -186 405 -195 415 -14 16 -38 18 -196 20 -98 2 -186 1 -195 -1z m362 -145 c15 -34 108 -243 208 -463 l181 -402 -19 -43 c-18 -43 -19 -44 -29 -19 -5 14 -34 88 -65 165 -76 197 -195 462 -291 650 -44 88 -82 163 -84 168 -2 4 14 7 35 7 37 0 39 -1 64 -63z m885 51 c1 -2 -1 -21 -7 -43 -12 -50 0 -973 13 -997 8 -16 3 -18 -43 -18 -45 0 -50 2 -44 18 11 30 17 830 6 936 -5 55 -7 104 -4 109 5 8 70 4 79 -5z m-1026 -1049 c0 -5 -4 -9 -10 -9 -5 0 -10 7 -10 16 0 8 5 12 10 9 6 -3 10 -10 10 -16z" style="fill: rgb(8, 0, 119);"/>
    <path d="M6855 4043 c-36 -91 -58 -119 -122 -155 -31 -18 -59 -41 -64 -55 -17 -44 21 -83 80 -83 l31 0 0 -232 c0 -130 5 -250 10 -270 26 -92 101 -133 227 -126 154 9 267 104 203 168 -23 23 -62 26 -79 6 -16 -20 -99 -36 -126 -26 -12 5 -25 16 -29 25 -3 9 -6 117 -6 239 l0 223 77 7 c42 3 95 6 119 6 41 0 43 2 49 33 4 18 5 51 3 72 l-3 40 -120 0 -120 0 0 40 c-1 22 -2 66 -3 98 l-2 57 -49 0 -49 0 -27 -67z m45 -243 c-4 -14 -5 -135 -3 -269 2 -216 5 -249 21 -283 22 -43 12 -49 -22 -15 -32 32 -40 111 -31 302 4 84 4 187 0 229 -6 65 -10 76 -26 76 -15 0 -11 8 19 39 l37 39 5 -46 c3 -26 3 -58 0 -72z" style="fill: rgb(8, 0, 119);"/>
    <path d="M8172 3963 c-31 -59 -67 -92 -138 -124 l-65 -30 3 -42 3 -42 60 -16 60 -16 3 -210 2 -211 -50 -11 c-28 -6 -57 -11 -64 -11 -21 0 -39 -54 -31 -91 l7 -32 52 7 c28 3 149 6 268 6 l218 0 16 25 c14 21 15 31 6 51 -15 31 -46 43 -137 51 l-72 6 -7 178 c-7 165 -6 180 13 216 10 21 29 48 40 60 20 21 23 21 62 8 71 -26 116 -20 155 19 40 40 46 92 14 143 -51 84 -154 83 -249 -2 -46 -42 -49 -40 -53 45 l-3 55 -47 3 c-46 3 -48 2 -66 -35z m347 -115 c15 -39 -9 -54 -64 -38 -57 16 -63 25 -28 44 43 23 82 20 92 -6z m-297 -416 c3 -206 2 -212 -17 -212 -19 0 -20 7 -20 238 0 259 -6 294 -53 310 l-26 8 35 22 c19 11 41 31 49 44 14 21 15 15 22 -87 3 -60 8 -206 10 -323z" style="fill: rgb(8, 0, 119);"/>
    <path d="M6255 3956 c-140 -35 -207 -111 -207 -238 0 -111 60 -176 224 -244 117 -49 168 -95 168 -153 0 -30 -6 -44 -25 -60 -86 -67 -200 -3 -251 139 -16 46 -21 50 -50 50 -59 0 -68 -20 -61 -136 8 -129 15 -147 65 -167 118 -47 258 -46 356 2 132 65 176 190 115 331 -29 69 -69 100 -213 169 -100 48 -125 64 -135 88 -26 63 33 116 103 93 40 -13 95 -70 115 -118 13 -31 16 -32 68 -32 l55 0 -7 78 c-12 151 -12 152 -59 172 -40 18 -151 41 -191 39 -11 0 -42 -6 -70 -13z m225 -106 c0 -5 -2 -10 -4 -10 -3 0 -8 5 -11 10 -3 6 -1 10 4 10 6 0 11 -4 11 -10z m-300 -180 c15 -21 61 -49 155 -94 149 -72 183 -104 192 -178 l5 -43 -22 42 c-35 67 -107 117 -244 169 -96 36 -151 116 -131 191 8 27 8 26 16 -15 4 -23 18 -56 29 -72z m-20 -435 c7 -9 8 -15 2 -15 -5 0 -12 7 -16 15 -3 8 -4 15 -2 15 2 0 9 -7 16 -15z" style="fill: rgb(8, 0, 119);"/>
    <path d="M4055 3942 c-117 -41 -183 -99 -244 -216 -38 -71 -39 -98 -5 -125 34 -27 89 -27 131 -1 26 16 36 32 53 88 23 74 49 108 96 121 71 19 102 -16 107 -119 1 -47 -2 -64 -13 -70 -8 -5 -55 -28 -104 -51 -198 -95 -317 -270 -258 -379 29 -54 72 -72 162 -67 64 3 86 9 149 42 l73 39 20 -27 c11 -15 33 -34 49 -42 41 -22 127 -19 166 5 36 22 90 91 99 127 7 24 -13 83 -27 83 -22 0 -66 -23 -81 -43 -11 -15 -20 -19 -27 -12 -6 6 -11 114 -13 265 -3 282 -4 284 -74 343 -41 34 -65 43 -144 51 -49 4 -77 2 -115 -12z m237 -148 c17 -41 19 -65 18 -262 -1 -119 -2 -229 -1 -243 1 -16 14 -39 33 -58 23 -22 27 -31 15 -31 -28 0 -66 22 -74 44 -4 12 -8 136 -8 276 0 245 -1 257 -23 298 -22 42 -22 43 -1 32 11 -7 30 -32 41 -56z m-382 -86 c0 -19 -18 -43 -25 -36 -4 3 -2 16 5 27 12 24 20 27 20 9z m268 -366 c-22 -26 -100 -72 -124 -72 -30 0 -48 24 -40 55 9 34 60 91 120 131 l51 34 3 -66 c2 -43 -2 -71 -10 -82z m-225 -109 c9 -11 17 -23 17 -28 0 -12 -63 3 -72 18 -13 21 -9 68 10 99 l17 30 5 -50 c3 -28 13 -59 23 -69z" style="fill: rgb(8, 0, 119);"/>
    <path d="M7510 3947 c-193 -55 -326 -306 -279 -529 36 -168 160 -282 329 -302 113 -14 249 37 347 130 60 56 59 51 37 167 l-6 27 -66 -55 c-91 -75 -124 -90 -202 -90 -70 1 -127 23 -167 67 -40 43 -73 128 -73 190 l0 58 258 2 257 3 -3 58 c-5 109 -70 205 -174 258 -53 27 -190 36 -258 16z m189 -143 c17 -14 31 -34 31 -43 0 -16 -15 -19 -132 -25 -72 -3 -133 -4 -135 -2 -8 8 53 69 82 82 52 23 119 18 154 -12z m154 -106 c-2 -5 -13 -8 -25 -8 -14 0 -18 5 -14 16 3 9 6 28 6 42 1 26 1 26 19 -8 11 -19 17 -38 14 -42z m-503 -43 c-20 -70 -7 -173 30 -253 51 -110 116 -163 230 -188 l55 -12 -62 -1 c-236 -3 -359 224 -261 482 17 43 22 23 8 -28z" style="fill: rgb(8, 0, 119);"/>
  </g>
</svg>