<?xml version="1.0" encoding="utf-8"?>
<svg version="1.0" xmlns="http://www.w3.org/2000/svg" width="1080.000000pt" height="1080.000000pt" viewBox="160.261 0.423 742.849 537.565" preserveAspectRatio="xMidYMid meet">
  <g transform="translate(0.000000,1080.000000) scale(0.100000,-0.100000)" fill="#000000" stroke="none">
    <path d="M4970 10794 c-93 -6 -300 -35 -395 -54 -215 -44 -617 -160 -800 -230 -11 -5 -65 -22 -120 -39 -55 -18 -192 -61 -305 -97 -317 -101 -435 -126 -695 -144 -180 -13 -234 -20 -241 -32 -3 -5 -4 -11 -2 -14 10 -9 258 -75 363 -97 254 -51 547 -16 985 118 567 173 663 199 855 235 97 18 513 30 685 20 254 -16 544 -74 1110 -225 723 -193 976 -237 1178 -206 99 15 359 80 395 98 16 8 26 20 24 26 -6 19 -52 25 -224 26 -158 1 -168 2 -335 45 -247 64 -516 142 -803 236 -562 183 -944 281 -1229 315 -130 15 -356 25 -446 19z" style="fill: rgb(255, 255, 255);"/>
    <path d="M4870 10274 c-263 -29 -685 -131 -1050 -254 -224 -75 -432 -131 -610 -164 -226 -43 -257 -51 -288 -80 -20 -18 -23 -27 -17 -64 7 -48 23 -29 -161 -198 -138 -127 -166 -175 -172 -289 -7 -125 17 -130 167 -31 151 100 254 137 381 137 149 0 317 -58 396 -138 20 -20 51 -66 68 -102 27 -57 31 -77 31 -146 0 -70 -4 -89 -34 -153 -54 -114 -126 -167 -276 -199 -75 -16 -123 -11 -375 37 -52 11 -96 17 -99 15 -5 -6 32 -53 144 -180 161 -183 376 -484 588 -825 37 -60 228 -434 248 -487 6 -16 13 -23 19 -17 27 27 33 175 39 981 5 759 7 834 23 849 15 16 19 15 55 -6 168 -102 397 -317 762 -718 380 -417 781 -773 1069 -950 234 -144 488 -245 748 -298 165 -33 402 -38 559 -10 321 56 551 200 653 406 64 131 75 187 70 364 -5 175 -18 224 -93 336 -59 88 -119 140 -221 191 -109 55 -196 67 -369 51 -116 -10 -133 -14 -212 -52 -119 -58 -228 -165 -267 -263 -56 -144 -57 -263 -1 -384 29 -65 114 -151 182 -184 42 -21 62 -24 158 -24 100 0 115 3 161 27 147 78 213 273 141 420 -29 59 -98 128 -127 128 -9 0 -25 9 -35 20 -31 34 -6 45 93 44 102 -2 144 -17 206 -74 87 -80 125 -229 93 -357 -49 -191 -178 -323 -370 -381 -73 -22 -102 -24 -257 -25 -126 0 -199 4 -262 16 -82 16 -277 78 -398 126 -153 61 -430 233 -575 357 -175 150 -956 901 -1075 1034 -104 117 -108 127 -34 110 135 -32 640 -51 1029 -40 268 9 391 26 647 90 286 72 419 117 863 289 174 68 424 150 563 186 180 45 542 176 542 196 0 3 -55 9 -122 13 -301 16 -375 30 -653 120 -808 261 -1049 333 -1385 415 -430 104 -615 132 -900 136 -124 2 -241 1 -260 -1z m807 -304 c278 -47 363 -70 968 -259 329 -102 503 -170 512 -197 7 -20 -338 -161 -564 -233 -229 -71 -516 -141 -683 -165 -58 -9 -154 -22 -215 -31 -60 -8 -159 -22 -219 -31 -194 -28 -222 -3 -105 91 159 128 240 326 226 545 -6 83 -14 118 -55 230 -15 40 -17 57 -9 62 16 10 9 11 144 -12z m-310 -63 c176 -185 98 -543 -159 -733 -108 -79 -276 -109 -447 -80 -113 20 -172 50 -246 124 -64 64 -106 141 -134 242 -25 89 -26 136 -6 213 35 136 99 217 171 217 55 0 74 -36 73 -134 -1 -104 -30 -163 -106 -220 -29 -21 -53 -47 -53 -56 0 -27 84 -136 132 -171 115 -83 236 -117 378 -105 148 13 296 119 367 263 34 70 37 82 41 186 l4 112 -46 90 c-25 50 -46 93 -46 98 0 20 32 1 77 -46z m-1145 -200 c-3 -116 0 -203 7 -237 14 -67 60 -162 106 -222 59 -78 54 -80 -112 -32 -106 30 -483 175 -638 244 -141 63 -168 71 -278 80 -142 13 -177 19 -177 30 0 17 33 27 200 65 194 44 469 122 700 199 91 30 172 55 180 55 14 1 15 -22 12 -182z" style="fill: rgb(255, 255, 255);"/>
  </g>
  <text style="fill: rgb(255, 255, 255); font-family: Arial, sans-serif; font-size: 136px; font-weight: 700; white-space: pre;" transform="matrix(1.30467, 0, 0, 1.12634, -20.5034, -57.7933)" x="138.552" y="499.616">Mathster</text>
</svg>