<?xml version="1.0" encoding="utf-8"?>
<svg xmlns="http://www.w3.org/2000/svg" version="1.0" preserveAspectRatio="xMidYMid meet" viewBox="1.29 189.17 496.82 88.88">
  <defs>
    <linearGradient gradientUnits="userSpaceOnUse" x1="1680.5" y1="2470" x2="1680.5" y2="2940" id="gradient-2">
      <stop offset="0" style="stop-color: rgb(14.51% 0% 54.51%)"/>
      <stop offset="1" style="stop-color: rgb(2.5863% 0% 48.109%)"/>
    </linearGradient>
    <linearGradient gradientUnits="userSpaceOnUse" x1="2229.811" y1="2470" x2="2229.811" y2="2941" id="gradient-3">
      <stop offset="0" style="stop-color: rgb(14.51% 0% 54.51%)"/>
      <stop offset="1" style="stop-color: rgb(2.5863% 0% 48.109%)"/>
    </linearGradient>
    <linearGradient gradientUnits="userSpaceOnUse" x1="2627.628" y1="2470" x2="2627.628" y2="2935" id="gradient-4">
      <stop offset="0" style="stop-color: rgb(14.51% 0% 54.51%)"/>
      <stop offset="1" style="stop-color: rgb(2.5863% 0% 48.109%)"/>
    </linearGradient>
    <linearGradient gradientUnits="userSpaceOnUse" x1="3080" y1="2470" x2="3080" y2="2940" id="gradient-5">
      <stop offset="0" style="stop-color: rgb(14.51% 0% 54.51%)"/>
      <stop offset="1" style="stop-color: rgb(2.5863% 0% 48.109%)"/>
    </linearGradient>
    <linearGradient gradientUnits="userSpaceOnUse" x1="3533.663" y1="2465" x2="3533.663" y2="2938.045" id="gradient-6">
      <stop offset="0" style="stop-color: rgb(14.51% 0% 54.51%)"/>
      <stop offset="1" style="stop-color: rgb(2.5863% 0% 48.109%)"/>
    </linearGradient>
    <linearGradient gradientUnits="userSpaceOnUse" x1="3937.628" y1="2470" x2="3937.628" y2="2935" id="gradient-7">
      <stop offset="0" style="stop-color: rgb(14.51% 0% 54.51%)"/>
      <stop offset="1" style="stop-color: rgb(2.5863% 0% 48.109%)"/>
    </linearGradient>
    <linearGradient gradientUnits="userSpaceOnUse" x1="4361.576" y1="2470" x2="4361.576" y2="2935" id="gradient-8">
      <stop offset="0" style="stop-color: rgb(14.51% 0% 54.51%)"/>
      <stop offset="1" style="stop-color: rgb(2.5863% 0% 48.109%)"/>
    </linearGradient>
    <linearGradient gradientUnits="userSpaceOnUse" x1="4798.076" y1="2470" x2="4798.076" y2="2939.243" id="gradient-9">
      <stop offset="0" style="stop-color: rgb(14.51% 0% 54.51%)"/>
      <stop offset="1" style="stop-color: rgb(2.5863% 0% 48.109%)"/>
    </linearGradient>
  </defs>
  <g transform="matrix(0.1, 0, 0, -0.1, -2358.162153, -2159.372202)" fill="#000000" stroke="none" style="transform-origin: 2620.18px 2417.61px;">
    <path d="M565 3103 c-49 -7 -142 -32 -285 -78 -74 -24 -166 -46 -203 -50 -37 -4 -66 -9 -64 -11 2 -3 37 -11 76 -18 84 -16 146 -7 316 47 89 29 113 32 220 32 111 -1 136 -4 330 -53 200 -50 214 -52 270 -41 79 14 103 28 50 29 -53 0 -130 19 -305 75 -138 43 -296 77 -350 73 -14 0 -38 -3 -55 -5z" style="fill: rgb(24, 2, 86);"/>
    <path d="M530 2976 c-41 -8 -127 -29 -190 -49 -63 -19 -134 -38 -158 -42 -27 -4 -46 -13 -49 -23 -3 -10 -23 -34 -45 -55 -23 -23 -38 -47 -38 -62 0 -28 21 -33 40 -10 20 24 80 36 123 24 52 -14 77 -41 77 -84 0 -64 -53 -94 -134 -77 -25 5 -46 7 -46 5 0 -3 18 -26 41 -51 52 -60 148 -204 167 -253 8 -21 19 -36 23 -33 5 3 9 97 9 210 0 112 4 204 8 204 17 0 74 -51 213 -191 80 -80 173 -164 209 -187 205 -133 461 -100 485 62 13 84 -27 150 -102 166 -51 12 -109 -4 -145 -40 -39 -40 -40 -110 -2 -145 55 -51 134 -21 134 49 0 25 -7 40 -26 55 l-27 21 30 0 c61 0 91 -67 58 -130 -22 -43 -65 -61 -145 -61 -128 0 -214 51 -414 243 l-139 134 144 -4 c171 -5 243 6 394 60 61 21 148 51 195 65 47 13 96 31 109 37 22 12 19 13 -35 18 -33 3 -126 27 -209 53 -303 94 -424 114 -555 91z m285 -71 c55 -9 283 -84 290 -95 14 -23 -304 -110 -404 -110 -25 0 -24 1 10 36 33 34 34 38 34 109 0 62 3 74 15 71 8 -2 33 -7 55 -11z m-107 -20 c17 -38 15 -76 -8 -112 -25 -41 -68 -63 -123 -63 -72 0 -113 51 -105 130 3 38 31 61 49 43 9 -9 9 -19 -1 -42 -7 -17 -16 -31 -21 -31 -16 0 -10 -26 10 -44 47 -43 133 -37 171 11 22 28 26 82 10 114 -6 10 -7 19 -2 19 5 0 14 -11 20 -25z m-278 -42 c0 -30 8 -60 20 -81 l20 -32 -28 6 c-15 4 -58 20 -97 37 -38 16 -92 34 -119 41 l-49 12 57 13 c32 7 81 21 109 31 82 29 87 28 87 -27z" style="fill: rgb(1, 0, 84);"/>
    <path d="M1415 2705 l0 -235 38 0 38 0 -7 150 c-4 91 -3 150 2 150 5 0 40 -66 76 -147 92 -204 90 -204 187 12 41 91 78 165 84 165 6 0 6 -63 2 -165 l-7 -165 59 0 59 0 -8 78 c-4 42 -4 148 -1 235 l6 157 -60 0 -60 0 -57 -127 c-31 -71 -65 -143 -75 -161 l-17 -34 -58 124 c-32 68 -65 140 -73 161 -15 37 -16 37 -72 37 l-56 0 0 -235z" style="fill: url(&quot;#gradient-2&quot;);"/>
    <path d="M2131 2793 c-30 -81 -71 -187 -91 -235 l-38 -88 39 0 c37 0 38 1 55 54 16 51 19 54 55 59 22 3 66 3 99 0 l60 -6 17 -53 17 -54 59 0 c43 0 58 3 54 13 -26 64 -138 354 -153 397 l-19 55 -50 3 -50 3 -54 -148z m118 -58 c17 -44 31 -81 31 -82 0 -2 -31 -3 -70 -3 l-70 0 20 50 c37 95 50 123 54 119 3 -2 19 -40 35 -84z" style="fill: url(&quot;#gradient-3&quot;);"/>
    <path d="M2437 2911 c-3 -13 -2 -33 2 -45 5 -19 13 -21 71 -21 l65 0 -2 -187 -2 -188 57 0 57 0 -3 190 -3 190 70 0 71 0 0 43 0 42 -189 0 -190 0 -4 -24z" style="fill: url(&quot;#gradient-4&quot;);"/>
    <path d="M2885 2705 l0 -235 55 0 56 0 -4 100 -4 100 92 0 92 0 -7 -100 -7 -100 58 0 59 0 0 235 0 235 -58 0 -57 0 6 -98 7 -99 -32 -6 c-17 -4 -59 -4 -92 0 l-61 6 4 99 4 98 -56 0 -55 0 0 -235z" style="fill: url(&quot;#gradient-5&quot;);"/>
    <path d="M3444 2922 c-81 -39 -106 -107 -61 -173 14 -21 52 -51 97 -76 106 -59 120 -71 120 -98 0 -40 -40 -59 -109 -52 -32 2 -71 12 -88 21 -35 18 -43 13 -43 -25 0 -23 6 -30 38 -41 20 -7 75 -13 122 -13 67 0 92 4 120 20 45 26 74 84 66 129 -10 53 -40 82 -137 132 -93 48 -115 76 -92 113 17 26 85 19 133 -13 22 -15 45 -24 50 -21 5 3 15 24 21 46 17 56 7 62 -104 66 -75 3 -100 0 -133 -15z" style="fill: url(&quot;#gradient-6&quot;);"/>
    <path d="M3747 2911 c-3 -13 -2 -33 2 -45 5 -19 13 -21 71 -21 l65 0 -2 -187 -2 -188 57 0 57 0 -3 190 -3 190 70 0 71 0 0 43 0 42 -189 0 -190 0 -4 -24z" style="fill: url(&quot;#gradient-7&quot;);"/>
    <path d="M4195 2702 l0 -232 158 0 c117 0 159 3 162 13 2 6 6 29 10 51 6 37 5 38 -17 32 -40 -11 -155 -19 -182 -12 -24 6 -26 10 -26 61 l0 55 90 0 90 0 0 36 0 37 -64 -5 c-35 -3 -76 -3 -90 -1 -24 5 -26 9 -26 59 l0 54 38 1 c68 2 125 -3 148 -11 24 -10 34 8 34 65 l0 30 -162 0 -163 0 0 -233z" style="fill: url(&quot;#gradient-8&quot;);"/>
    <path d="M4675 2933 c-11 -2 -29 -6 -40 -8 -19 -4 -20 -12 -20 -230 l0 -225 56 0 56 0 -5 80 -5 80 36 0 c35 0 37 -2 74 -79 l38 -80 50 0 c72 -1 80 8 49 50 -14 19 -36 55 -50 81 l-23 46 39 40 c38 37 40 43 40 99 0 72 -21 105 -84 134 -39 18 -154 24 -211 12z m156 -76 c45 -34 48 -100 7 -144 -21 -23 -52 -28 -95 -17 -22 6 -23 12 -23 90 l0 84 48 0 c26 0 54 -6 63 -13z" style="fill: url(&quot;#gradient-9&quot;);"/>
  </g>
</svg>